<svg viewBox="0 0 480 480" xmlns="http://www.w3.org/2000/svg"><path d="m375.519531 440.480469v-72.480469h-16v32h-239.390625l-.136718-16.070312-16 .140624.472656 56.410157c.027344 21.816406 17.710937 39.496093 39.527344 39.519531h192c21.820312-.023438 39.503906-17.703125 39.527343-39.519531zm-39.527343 23.519531h-192c-13.007813-.023438-23.539063-10.582031-23.527344-23.59375l-.199219-24.40625h239.253906v24.480469c-.015625 12.984375-10.539062 23.507812-23.527343 23.519531zm0 0"/><path d="m287.992188 80v16h71.527343v16h16v-40.480469c-.023437-21.816406-17.707031-39.496093-39.527343-39.519531h-48v16h48c12.988281.011719 23.511718 10.535156 23.527343 23.519531v8.480469zm0 0"/><path d="m231.992188 432h16v16h-16zm0 0"/><path d="m47.992188 32v96c0 17.671875 14.328124 32 32 32h53.601562l45.984375 30.65625c2.453125 1.625 5.601563 1.769531 8.195313.378906s4.214843-4.09375 4.21875-7.035156v-24h48c17.675781 0 32-14.328125 32-32v-96c0-17.671875-14.324219-32-32-32h-160c-17.671876 0-32 14.328125-32 32zm208 0v96c0 8.835938-7.164063 16-16 16h-56c-4.417969 0-8 3.582031-8 8v17.054688l-35.558594-23.710938c-1.316406-.875-2.859375-1.339844-4.441406-1.34375h-56c-8.835938 0-16-7.164062-16-16v-96c0-8.835938 7.164062-16 16-16h160c8.835937 0 16 7.164062 16 16zm0 0"/><path d="m95.992188 128h80c4.417968 0 8-3.582031 8-8v-11.054688l36.425781 18.253907c2.484375 1.242187 5.441406 1.105469 7.800781-.363281s3.789062-4.054688 3.773438-6.835938v-80c.003906-2.773438-1.433594-5.347656-3.789063-6.808594-2.359375-1.457031-5.304687-1.589844-7.785156-.351562l-36.425781 18.214844v-11.054688c0-4.417969-3.582032-8-8-8h-80c-4.417969 0-8 3.582031-8 8v80c0 4.417969 3.582031 8 8 8zm8-80h64v16c0 2.773438 1.433593 5.347656 3.792968 6.808594 2.359375 1.457031 5.304688 1.589844 7.785156.351562l36.421876-18.214844v54.109376l-36.421876-18.214844c-2.480468-1.238282-5.425781-1.105469-7.785156.351562-2.359375 1.460938-3.792968 4.035156-3.792968 6.808594v16h-64zm0 0"/><path d="m367.992188 128c-39.765626-.050781-76.566407 21.015625-96.65625 55.332031-20.089844 34.316407-20.449219 76.71875-.941407 111.371094l-21.34375 37.296875c-1.589843 2.78125-1.367187 6.246094.570313 8.800781 1.933594 2.550781 5.207031 3.703125 8.316406 2.925781l46.542969-11.636718c18.632812 12.984375 40.800781 19.933594 63.511719 19.910156 61.855468 0 112-50.144531 112-112s-50.144532-112-112-112zm0 208c-20.578126.023438-40.609376-6.628906-57.085938-18.960938-1.386719-1.039062-3.070312-1.597656-4.800781-1.597656-.65625-.003906-1.308594.074219-1.945313.238282l-31.949218 8 14.328124-25.078126c1.460938-2.554687 1.40625-5.703124-.144531-8.203124-22.914062-37.179688-17.8125-85.148438 12.402344-116.683594 30.21875-31.53125 77.921875-38.671875 116.050781-17.367188 38.125 21.304688 57.042969 65.675782 46.023438 107.9375-11.023438 42.261719-49.203125 71.742188-92.878906 71.714844zm0 0"/><path d="m412.792969 216h-12.800781v-16c0-17.671875-14.324219-32-32-32-8.835938 0-16 7.164062-16 16v20.6875l-11.3125 11.3125h-28.6875c-4.417969 0-8 3.582031-8 8v64c0 4.417969 3.582031 8 8 8h100.800781c10.605469 0 19.199219-8.597656 19.199219-19.199219v-41.601562c0-10.601563-8.59375-19.199219-19.199219-19.199219zm-92.800781 16h16v48h-16zm96 44.800781c0 1.765625-1.433594 3.199219-3.199219 3.199219h-60.800781v-52.6875l13.65625-13.65625c1.5-1.5 2.34375-3.535156 2.34375-5.65625v-24c8.835937 0 16 7.164062 16 16v16c-4.417969 0-8 3.582031-8 8s3.582031 8 8 8h28.800781c1.765625 0 3.199219 1.433594 3.199219 3.199219zm0 0"/><path d="m95.992188 368c20.53125-.027344 40.515624-6.621094 57.03125-18.816406l36.800781 10.511718c3.054687.875 6.335937-.136718 8.363281-2.578124 2.027344-2.441407 2.417969-5.855469.996094-8.691407l-17.054688-34.027343c18.929688-38.453126 10.078125-84.792969-21.695312-113.5625-31.769532-28.765626-78.761719-32.988282-115.152344-10.34375-36.390625 22.644531-53.363281 66.667968-41.589844 107.878906 11.777344 41.210937 49.441406 69.625 92.300782 69.628906zm0-176c28.265624 0 54.433593 14.917969 68.835937 39.242188 14.402344 24.320312 14.898437 54.4375 1.308594 79.222656-1.261719 2.300781-1.316407 5.074218-.144531 7.421875l10.714843 21.425781-23.203125-6.625c-2.496094-.703125-5.179687-.152344-7.199218 1.480469-14.199219 11.59375-31.980469 17.898437-50.3125 17.832031-44.183594 0-80-35.816406-80-80s35.816406-80 80-80zm0 0"/><path d="m45.25 288.800781 45.671875 37.40625c2.949219 2.417969 7.195313 2.417969 10.144531 0l45.671875-37.40625c7.464844-6.039062 12.1875-14.828125 13.101563-24.386719.890625-9.433593-2.0625-18.832031-8.191406-26.0625-6.839844-8.011718-16.664063-12.867187-27.179688-13.4375-10.519531-.570312-20.808594 3.199219-28.476562 10.421876-7.710938-7.222657-18.039063-10.980469-28.589844-10.398438-10.484375.554688-20.273438 5.410156-27.066406 13.414062-6.128907 7.230469-9.082032 16.628907-8.191407 26.0625.914063 9.558594 5.636719 18.347657 13.105469 24.386719zm7.359375-40.183593c3.945313-4.621094 9.621094-7.410157 15.6875-7.707032h1.273437c5.714844-.023437 11.222657 2.148438 15.382813 6.066406l5.511719 5.261719c3.09375 2.957031 7.964844 2.957031 11.054687 0l5.515625-5.261719c4.460938-4.171874 10.425782-6.347656 16.527344-6.03125 6.101562.316407 11.808594 3.101563 15.816406 7.710938 3.371094 3.964844 5.003906 9.121094 4.535156 14.304688-.523437 5.300781-3.164062 10.171874-7.320312 13.503906l-40.601562 33.191406-40.597657-33.257812c-4.160156-3.332032-6.796875-8.199219-7.320312-13.503907-.472657-5.183593 1.164062-10.335937 4.535156-14.300781zm0 0"/></svg>