<svg height="496pt" viewBox="0 0 496 496" width="496pt" xmlns="http://www.w3.org/2000/svg"><path d="m168 128c-22.054688 0-40 17.945312-40 40s17.945312 40 40 40 40-17.945312 40-40-17.945312-40-40-40zm0 64c-13.230469 0-24-10.769531-24-24s10.769531-24 24-24 24 10.769531 24 24-10.769531 24-24 24zm0 0"/><path d="m328 368c-22.054688 0-40 17.945312-40 40s17.945312 40 40 40 40-17.945312 40-40-17.945312-40-40-40zm0 64c-13.230469 0-24-10.769531-24-24s10.769531-24 24-24 24 10.769531 24 24-10.769531 24-24 24zm0 0"/><path d="m459.65625 321.488281c8.183594-23.558593 12.34375-48.230469 12.34375-73.488281 0-53.976562-19.328125-105.648438-54.472656-146.328125 4.058594-6.257813 6.472656-13.679687 6.472656-21.671875 0-22.054688-17.945312-40-40-40-11.007812 0-20.992188 4.480469-28.230469 11.703125-28.753906-15.800781-60.945312-25.152344-93.792969-27.191406-13.207031-14.992188-32.480468-24.511719-53.976562-24.511719-28.046875 0-53.351562 16.503906-65.078125 41.3125-9.089844-6.066406-19.746094-9.3125-30.921875-9.3125-28.425781 0-51.976562 21.296875-55.535156 48.769531-2.792969-.511719-5.617188-.769531-8.464844-.769531-26.472656 0-48 21.527344-48 48 0 22.441406 15.503906 41.28125 36.34375 46.511719-8.183594 23.558593-12.34375 48.230469-12.34375 73.488281 0 49.710938 16.816406 98.113281 47.183594 137.230469-4.503906 6.472656-7.183594 14.304687-7.183594 22.769531 0 22.054688 17.945312 40 40 40 9.929688 0 18.910156-3.769531 25.910156-9.785156 35.425782 22.042968 76.074219 33.785156 118.089844 33.785156 4.070312 0 8.160156-.222656 12.238281-.449219l14.105469 14.105469c3 3 8.3125 3 11.3125 0l12.304688-12.304688c1.984374.90625 4 1.738282 6.039062 2.464844v12.183594c0 4.425781 3.585938 8 8 8h32c4.414062 0 8-3.574219 8-8v-12.167969c2.0625-.726562 4.089844-1.542969 6.0625-2.449219l12.28125 12.273438c3.128906 3.128906 8.183594 3.128906 11.3125 0l24-24c1.503906-1.496094 2.34375-3.527344 2.34375-5.65625s-.839844-4.160156-2.34375-5.65625l-12.28125-12.28125c.90625-1.964844 1.722656-3.992188 2.449219-6.0625h12.175781c4.414062 0 8-3.574219 8-8v-8h32c26.472656 0 48-21.527344 48-48 0-22.441406-15.503906-41.28125-36.34375-46.511719zm-75.65625-265.488281c13.230469 0 24 10.769531 24 24s-10.769531 24-24 24-24-10.769531-24-24 10.769531-24 24-24zm-368 72c0-17.648438 14.351562-32 32-32 4.414062 0 8.769531.9375 12.929688 2.785156 2.574218 1.136719 5.527343.664063 7.832031-.960937 2.300781-1.617188 3.566406-4.511719 3.367187-7.320313-.066406-.832031-.128906-1.65625-.128906-2.503906 0-22.054688 17.945312-40 40-40 10.894531 0 21.089844 4.328125 28.703125 12.183594 1.992187 2.054687 4.9375 2.90625 7.703125 2.191406 2.777344-.703125 4.960938-2.832031 5.738281-5.582031 6.777344-24.015625 28.917969-40.792969 53.855469-40.792969 30.878906 0 56 25.121094 56 56 0 6.296875-1.105469 12.59375-3.289062 18.726562-1.117188 3.152344-.160157 6.671876 2.410156 8.816407 2.566406 2.152343 6.199218 2.472656 9.101562.808593 5.050782-2.886718 10.351563-4.351562 15.777344-4.351562 17.648438 0 32 14.351562 32 32s-14.351562 32-32 32h-32v-8c0-4.414062-3.585938-8-8-8h-12.183594c-.726562-2.039062-1.542968-4.054688-2.464844-6.039062l12.304688-12.304688c3.128906-3.128906 3.128906-8.183594 0-11.3125l-24-24c-3.128906-3.128906-8.183594-3.128906-11.3125 0l-12.304688 12.304688c-1.984374-.914063-4-1.738282-6.039062-2.464844v-12.183594c0-4.414062-3.585938-8-8-8h-32c-4.414062 0-8 3.585938-8 8v12.175781c-2.0625.726563-4.089844 1.542969-6.0625 2.449219l-12.28125-12.28125c-3.128906-3.128906-8.183594-3.128906-11.3125 0l-24 24c-3.128906 3.128906-3.128906 8.183594 0 11.3125l12.28125 12.28125c-.90625 1.972656-1.722656 4-2.449219 6.0625h-12.175781c-4.414062 0-8 3.585938-8 8v8h-32c-17.648438 0-32-14.351562-32-32zm201.953125 77.265625 10.734375 10.734375-12.6875 12.6875-10.734375-10.734375c-2.546875-2.554687-6.496094-3.074219-9.625-1.296875-4.199219 2.398438-8.792969 4.246094-13.640625 5.503906-3.527344.902344-6 4.097656-6 7.742188v10.097656h-16v-10.097656c0-3.644532-2.472656-6.832032-6-7.742188-4.703125-1.214844-9.289062-3.082031-13.617188-5.535156-3.136718-1.792969-7.0625-1.25-9.605468 1.296875l-10.777344 10.765625-12.6875-12.6875 10.765625-10.769531c2.546875-2.542969 3.082031-6.476563 1.296875-9.605469-2.453125-4.328125-4.320312-8.914062-5.535156-13.617188-.902344-3.535156-4.097656-6.007812-7.742188-6.007812h-10.097656v-16h10.097656c3.644532 0 6.832032-2.472656 7.742188-6 1.25-4.847656 3.105468-9.441406 5.503906-13.640625 1.785156-3.136719 1.257812-7.070313-1.296875-9.625l-10.734375-10.734375 12.6875-12.6875 10.734375 10.734375c2.554687 2.5625 6.496094 3.089844 9.625 1.296875 4.199219-2.398438 8.792969-4.246094 13.640625-5.503906 3.527344-.910156 6-4.097656 6-7.742188v-10.097656h16v10.097656c0 3.644532 2.472656 6.832032 6 7.742188 4.703125 1.214844 9.289062 3.082031 13.617188 5.535156 3.117187 1.777344 7.0625 1.242188 9.605468-1.296875l10.777344-10.765625 12.6875 12.6875-10.765625 10.769531c-2.546875 2.542969-3.082031 6.476563-1.296875 9.605469 2.453125 4.328125 4.320312 8.914062 5.535156 13.617188.910156 3.535156 4.097656 6 7.742188 6h10.097656v16h-10.097656c-3.644532 0-6.832032 2.472656-7.742188 6-1.25 4.847656-3.105468 9.441406-5.503906 13.640624-1.785156 3.144532-1.257812 7.078126 1.296875 9.632813zm-113.953125 226.734375c-13.230469 0-24-10.769531-24-24s10.769531-24 24-24 24 10.769531 24 24-10.769531 24-24 24zm35.808594-6.527344c2.597656-5.304687 4.191406-11.183594 4.191406-17.472656 0-22.054688-17.945312-40-40-40-7.777344 0-14.976562 2.320312-21.128906 6.175781-27.597656-36.105469-42.871094-80.542969-42.871094-126.175781 0-24.808594 4.359375-48.992188 12.855469-72h27.144531v8c0 4.414062 3.585938 8 8 8h12.183594c.726562 2.039062 1.542968 4.054688 2.464844 6.039062l-12.304688 12.304688c-3.128906 3.128906-3.128906 8.183594 0 11.3125l24 24c3.128906 3.128906 8.183594 3.128906 11.3125 0l12.304688-12.304688c1.984374.914063 4 1.738282 6.039062 2.464844v12.183594c0 4.414062 3.585938 8 8 8h32c4.414062 0 8-3.585938 8-8v-12.175781c2.0625-.726563 4.089844-1.542969 6.0625-2.449219l12.28125 12.28125c3.128906 3.128906 8.183594 3.128906 11.3125 0l24-24c3.128906-3.128906 3.128906-8.183594 0-11.3125l-12.28125-12.28125c.90625-1.972656 1.722656-4 2.449219-6.0625h12.175781c4.414062 0 8-3.585938 8-8v-8h32c26.472656 0 48-21.527344 48-48s-21.527344-48-48-48c-2.886719 0-5.742188.265625-8.550781.800781.367187-2.929687.550781-5.863281.550781-8.800781 0-10.878906-2.496094-21.160156-6.832031-30.414062 25.832031 3.140624 50.945312 11.15625 73.777343 23.519531-1.867187 4.613281-2.945312 9.621093-2.945312 14.894531 0 22.054688 17.945312 40 40 40 8.265625 0 15.953125-2.519531 22.335938-6.832031 32.0625 37.609375 49.664062 85.175781 49.664062 134.832031 0 24.96875-4.414062 49.3125-13.03125 72.472656-1.175781.128906-2.367188.113282-3.527344.328125.375-2.929687.558594-5.863281.558594-8.800781 0-39.703125-32.304688-72-72-72-28.046875 0-53.351562 16.503906-65.078125 41.3125-9.089844-6.066406-19.738281-9.3125-30.921875-9.3125-28.425781 0-51.976562 21.289062-55.535156 48.769531-2.792969-.511719-5.617188-.769531-8.464844-.769531-26.472656 0-48 21.527344-48 48s21.527344 48 48 48h32v8c0 4.425781 3.585938 8 8 8h12.183594c.726562 2.046875 1.542968 4.054688 2.464844 6.039062l-12.304688 12.304688c-1.542969 1.542969-2.3125 3.558594-2.328125 5.585938-38.167969-.042969-75.648437-10.585938-108.207031-30.457032zm260.191406-9.472656h-10.097656c-3.644532 0-6.832032 2.472656-7.742188 6-1.25 4.847656-3.105468 9.441406-5.503906 13.648438-1.785156 3.136718-1.257812 7.070312 1.296875 9.617187l10.734375 10.734375-12.6875 12.6875-10.734375-10.734375c-2.546875-2.546875-6.480469-3.082031-9.617187-1.296875-4.207032 2.398438-8.800782 4.246094-13.648438 5.503906-3.535156.917969-6 4.097656-6 7.742188v10.097656h-16v-10.097656c0-3.644532-2.464844-6.832032-5.992188-7.742188-4.71875-1.222656-9.304687-3.097656-13.632812-5.542968-3.128906-1.792969-7.0625-1.242188-9.605469 1.292968l-10.769531 10.777344-12.6875-12.6875 10.765625-10.777344c2.546875-2.542968 3.082031-6.488281 1.296875-9.613281-2.464844-4.3125-4.320312-8.890625-5.535156-13.601563-.902344-3.535156-4.097656-6.007812-7.742188-6.007812h-10.097656v-16h10.097656c3.644532 0 6.832032-2.472656 7.742188-6 1.25-4.847656 3.105468-9.441406 5.503906-13.648438 1.785156-3.136718 1.257812-7.070312-1.296875-9.617187l-10.734375-10.734375 12.6875-12.6875 10.734375 10.734375c2.546875 2.539063 6.480469 3.082031 9.617187 1.296875 4.207032-2.398438 8.800782-4.246094 13.648438-5.503906 3.527344-.910156 6-4.097656 6-7.742188v-10.097656h16v10.097656c0 3.644532 2.464844 6.832032 5.992188 7.742188 4.71875 1.222656 9.304687 3.097656 13.632812 5.542968 3.128906 1.785157 7.0625 1.242188 9.605469-1.292968l10.769531-10.777344 12.6875 12.6875-10.765625 10.777344c-2.546875 2.542968-3.082031 6.488281-1.296875 9.613281 2.464844 4.3125 4.320312 8.890625 5.535156 13.601563.902344 3.535156 4.097656 6.007812 7.742188 6.007812h10.097656zm48-16h-32v-8c0-4.425781-3.585938-8-8-8h-12.183594c-.726562-2.046875-1.542968-4.054688-2.464844-6.039062l12.304688-12.304688c3.128906-3.128906 3.128906-8.183594 0-11.3125l-24-24c-3-3-8.3125-3-11.3125 0l-12.304688 12.304688c-1.984374-.90625-4-1.738282-6.039062-2.464844v-12.183594c0-4.425781-3.585938-8-8-8h-32c-4.414062 0-8 3.574219-8 8v12.167969c-2.0625.726562-4.089844 1.542969-6.0625 2.449219l-12.28125-12.273438c-3.128906-3.128906-8.183594-3.128906-11.3125 0l-24 24c-1.503906 1.496094-2.34375 3.527344-2.34375 5.65625s.839844 4.160156 2.34375 5.65625l12.28125 12.28125c-.90625 1.964844-1.722656 3.992188-2.449219 6.0625h-12.175781c-4.414062 0-8 3.574219-8 8v8h-32c-17.648438 0-32-14.351562-32-32s14.351562-32 32-32c4.414062 0 8.769531.9375 12.9375 2.785156 2.582031 1.144532 5.535156.65625 7.832031-.960937 2.292969-1.609375 3.566407-4.503907 3.359375-7.304688-.066406-.839843-.128906-1.671875-.128906-2.519531 0-22.054688 17.945312-40 40-40 10.894531 0 21.089844 4.328125 28.703125 12.191406 2 2.054688 4.929687 2.886719 7.703125 2.183594 2.777344-.703125 4.960938-2.832031 5.738281-5.582031 6.777344-24.015625 28.917969-40.792969 53.855469-40.792969 30.878906 0 56 25.128906 56 56 0 6.296875-1.105469 12.59375-3.289062 18.734375-1.117188 3.160156-.160157 6.671875 2.410156 8.824219 2.566406 2.144531 6.207031 2.464844 9.101562.800781 5.050782-2.886719 10.351563-4.359375 15.777344-4.359375 17.648438 0 32 14.351562 32 32s-14.351562 32-32 32zm0 0"/></svg>