<svg xmlns="http://www.w3.org/2000/svg" viewBox="0 0 64 64" ><g id="Smart_phone_shopping" data-name="Smart phone shopping"><path d="M38,50a3.986,3.986,0,0,0-2.51.894,4,4,0,1,0,0,6.212A4,4,0,1,0,38,50Zm-5,6a2,2,0,1,1,2-2A2,2,0,0,1,33,56Zm5,0a1.968,1.968,0,0,1-1.3-.486,3.946,3.946,0,0,0,0-3.028A1.968,1.968,0,0,1,38,52a2,2,0,0,1,0,4Z"/><path d="M23,52H9a1,1,0,0,0-1,1v4a1,1,0,0,0,1,1H23a1,1,0,0,0,1-1V53A1,1,0,0,0,23,52Zm-1,4H10V54H22Z"/><path d="M42,7h2a1,1,0,0,0,0-2H42a1,1,0,0,0,0,2Z"/><path d="M57,2H29a5.006,5.006,0,0,0-5,5V34H7a5.006,5.006,0,0,0-5,5V57a5.006,5.006,0,0,0,5,5H57a5.006,5.006,0,0,0,5-5V7A5.006,5.006,0,0,0,57,2ZM29,4H57a3,3,0,0,1,3,3V8H26V7A3,3,0,0,1,29,4Zm-3,6H60V52H46V39a5.006,5.006,0,0,0-5-5H26ZM4,42H44v2H4Zm3-6H41a3,3,0,0,1,3,3v1H4V39A3,3,0,0,1,7,36ZM4,57V46H44V57a3,3,0,0,1-3,3H7A3,3,0,0,1,4,57Zm53,3H44.974A4.948,4.948,0,0,0,46,57V54H60v3A3,3,0,0,1,57,60Z"/><path d="M52,28V18a1,1,0,0,0-1-1H48a5,5,0,0,0-10,0H35a1,1,0,0,0-1,1V28a5.006,5.006,0,0,0,5,5h8A5.006,5.006,0,0,0,52,28ZM43,14a3,3,0,0,1,3,3H40A3,3,0,0,1,43,14ZM36,28V19h2v2a1,1,0,0,0,2,0V19h6v2a1,1,0,0,0,2,0V19h2v9a3,3,0,0,1-3,3H39A3,3,0,0,1,36,28Z"/></g></svg>