<svg id="Слой_1" data-name="Слой 1" xmlns="http://www.w3.org/2000/svg" viewBox="0 0 712.1 1428.93"><defs><style>.cls-1{fill:#f7f7f7;}</style></defs><title>logo-shape</title><path class="cls-1" d="M712.09,999.3q0,210.08-.09,420.14c0,3.17-1.49,6.33-2.28,9.49-2.73-2.11-5.28-4.53-8.22-6.3q-346-208.34-692-416.54c-3-1.78-6.3-3-9.46-4.41V572.05c3.45,1.89,7,3.65,10.33,5.68Q322.49,765.65,634.66,953.58C660.34,969,686.28,984.08,712.09,999.3Z"/><path class="cls-1" d="M712.09,427.26V856.89c-3.45-1.89-7-3.64-10.33-5.67Q384,659.94,66.25,468.66c-22-13.22-44.16-26-66.25-39Q0,219.54.1,9.46C.1,6.31,1.58,3.15,2.37,0,5.1,2.12,7.65,4.54,10.59,6.31q346,208.33,692,416.54C705.59,424.63,708.93,425.8,712.09,427.26Z"/></svg>