<svg data-name="Слой 1" xmlns="http://www.w3.org/2000/svg" viewBox="0 0 712.1 1428.93"><defs><style>.cls-1{fill:#ff7062}</style></defs><path class="cls-1" d="M712.09 999.3q0 210.08-.09 420.14c0 3.17-1.49 6.33-2.28 9.49-2.73-2.11-5.28-4.53-8.22-6.3q-346-208.34-692-416.54c-3-1.78-6.3-3-9.46-4.41V572.05c3.45 1.89 7 3.65 10.33 5.68q312.12 187.92 624.29 375.85c25.68 15.42 51.62 30.5 77.43 45.72zM712.09 427.26v429.63c-3.45-1.89-7-3.64-10.33-5.67Q384 659.94 66.25 468.66c-22-13.22-44.16-26-66.25-39Q0 219.54.1 9.46C.1 6.31 1.58 3.15 2.37 0c2.73 2.12 5.28 4.54 8.22 6.31q346 208.33 692 416.54c3 1.78 6.34 2.95 9.5 4.41z"/></svg>